<svg width="54" height="71" viewBox="0 0 54 71" fill="none" xmlns="http://www.w3.org/2000/svg">
<path fill-rule="evenodd" clip-rule="evenodd" d="M48 48.1823C48 56.37 39.5602 64.5625 27 64.5625C14.4398 64.5625 6 56.37 6 48.1823C6 39.6896 11.7018 29.1132 18.4035 19.9059C21.4326 15.7444 24.4726 12.1195 26.8499 9.44164C29.2724 12.3287 32.4158 16.2588 35.5479 20.6942C38.8134 25.3187 41.9897 30.3845 44.33 35.3147C46.7133 40.3353 48 44.7436 48 48.1823ZM0 48.1823C0 32.3816 15.3937 13.3281 22.9343 4.94262C25.3803 2.22258 27 0.625 27 0.625C27 0.625 28.5517 2.2867 30.9111 5.07024C38.3937 13.8978 54 34.0083 54 48.1823C54 60.439 41.9117 70.375 27 70.375C12.0883 70.375 0 60.439 0 48.1823ZM13.495 38.4062H19.9497C18.7353 41.0914 18 43.6379 18 45.8042C18 49.1307 21.3589 52.9375 27 52.9375V58.75C18.7157 58.75 12 52.954 12 45.8042C12 43.4184 12.573 40.9055 13.495 38.4062Z" fill="white"/>
</svg>
